<mxfile host="app.diagrams.net" agent="Mozilla/5.0 (Windows NT 10.0; Win64; x64) AppleWebKit/537.36 (KHTML, like Gecko) Chrome/129.0.0.0 Safari/537.36" version="24.8.0">
  <diagram name="Página-1" id="rHe82yMNUNzr3l4-RFmL">
    <mxGraphModel grid="1" page="1" gridSize="10" guides="1" tooltips="1" connect="1" arrows="1" fold="1" pageScale="1" pageWidth="827" pageHeight="1169" math="0" shadow="0">
      <root>
        <mxCell id="0" />
        <mxCell id="1" parent="0" />
        <mxCell id="9lNDnRvuEtg5gRLqhsy1-1" style="edgeStyle=orthogonalEdgeStyle;rounded=0;orthogonalLoop=1;jettySize=auto;html=1;" edge="1" parent="1" source="NnSra6pWY707LlM8zNGm-2" target="NnSra6pWY707LlM8zNGm-17">
          <mxGeometry relative="1" as="geometry">
            <Array as="points">
              <mxPoint x="630" y="240" />
              <mxPoint x="380" y="240" />
            </Array>
          </mxGeometry>
        </mxCell>
        <mxCell id="9lNDnRvuEtg5gRLqhsy1-2" style="edgeStyle=orthogonalEdgeStyle;rounded=0;orthogonalLoop=1;jettySize=auto;html=1;" edge="1" parent="1" source="NnSra6pWY707LlM8zNGm-2" target="NnSra6pWY707LlM8zNGm-13">
          <mxGeometry relative="1" as="geometry">
            <Array as="points">
              <mxPoint x="630" y="240" />
              <mxPoint x="230" y="240" />
            </Array>
          </mxGeometry>
        </mxCell>
        <mxCell id="NnSra6pWY707LlM8zNGm-2" value="Proyecto" style="rounded=0;whiteSpace=wrap;html=1;fillColor=#1ba1e2;strokeColor=#006EAF;fontColor=#ffffff;" vertex="1" parent="1">
          <mxGeometry x="570" y="150" width="120" height="60" as="geometry" />
        </mxCell>
        <mxCell id="NnSra6pWY707LlM8zNGm-3" value="" style="endArrow=none;html=1;rounded=0;entryX=0.5;entryY=1;entryDx=0;entryDy=0;" edge="1" parent="1" target="NnSra6pWY707LlM8zNGm-2">
          <mxGeometry width="50" height="50" relative="1" as="geometry">
            <mxPoint x="630" y="240" as="sourcePoint" />
            <mxPoint x="690" y="380" as="targetPoint" />
            <Array as="points">
              <mxPoint x="630" y="220" />
            </Array>
          </mxGeometry>
        </mxCell>
        <mxCell id="NnSra6pWY707LlM8zNGm-9" value="" style="endArrow=none;html=1;rounded=0;" edge="1" parent="1">
          <mxGeometry width="50" height="50" relative="1" as="geometry">
            <mxPoint x="230" y="240" as="sourcePoint" />
            <mxPoint x="930" y="240" as="targetPoint" />
          </mxGeometry>
        </mxCell>
        <mxCell id="NnSra6pWY707LlM8zNGm-13" value="&lt;div&gt;Inicio Proyecto[1]&amp;nbsp;&lt;/div&gt;" style="rounded=0;whiteSpace=wrap;html=1;fillColor=#1ba1e2;strokeColor=#006EAF;fontColor=#ffffff;" vertex="1" parent="1">
          <mxGeometry x="170" y="270" width="120" height="60" as="geometry" />
        </mxCell>
        <mxCell id="NnSra6pWY707LlM8zNGm-17" value="&lt;div&gt;Planificación[2]&lt;/div&gt;" style="rounded=0;whiteSpace=wrap;html=1;fillColor=#1ba1e2;strokeColor=#006EAF;fontColor=#ffffff;" vertex="1" parent="1">
          <mxGeometry x="320" y="270" width="120" height="60" as="geometry" />
        </mxCell>
        <mxCell id="4qgYil5iZHDEp8zIYjFl-12" style="edgeStyle=orthogonalEdgeStyle;rounded=0;orthogonalLoop=1;jettySize=auto;html=1;entryX=0.5;entryY=0;entryDx=0;entryDy=0;" edge="1" parent="1" source="NnSra6pWY707LlM8zNGm-27" target="NnSra6pWY707LlM8zNGm-28">
          <mxGeometry relative="1" as="geometry" />
        </mxCell>
        <mxCell id="NnSra6pWY707LlM8zNGm-27" value="&lt;div&gt;Seguimiento[4]&lt;/div&gt;" style="rounded=0;whiteSpace=wrap;html=1;fillColor=#1ba1e2;strokeColor=#006EAF;fontColor=#ffffff;" vertex="1" parent="1">
          <mxGeometry x="720" y="270" width="120" height="60" as="geometry" />
        </mxCell>
        <mxCell id="NnSra6pWY707LlM8zNGm-28" value="Paquete de trabajo 4.1" style="rounded=0;whiteSpace=wrap;html=1;fillColor=#1ba1e2;strokeColor=#006EAF;fontColor=#ffffff;" vertex="1" parent="1">
          <mxGeometry x="720" y="350" width="120" height="60" as="geometry" />
        </mxCell>
        <mxCell id="NnSra6pWY707LlM8zNGm-30" value="&lt;div&gt;Entrega y cierre[5]&lt;/div&gt;" style="rounded=0;whiteSpace=wrap;html=1;fillColor=#1ba1e2;strokeColor=#006EAF;fontColor=#ffffff;" vertex="1" parent="1">
          <mxGeometry x="870" y="270" width="120" height="60" as="geometry" />
        </mxCell>
        <mxCell id="4qgYil5iZHDEp8zIYjFl-13" style="edgeStyle=orthogonalEdgeStyle;rounded=0;orthogonalLoop=1;jettySize=auto;html=1;entryX=0.5;entryY=0;entryDx=0;entryDy=0;" edge="1" parent="1" source="NnSra6pWY707LlM8zNGm-34" target="NnSra6pWY707LlM8zNGm-40">
          <mxGeometry relative="1" as="geometry" />
        </mxCell>
        <mxCell id="NnSra6pWY707LlM8zNGm-34" value="&lt;div&gt;Ejecución[3]&lt;/div&gt;" style="rounded=0;whiteSpace=wrap;html=1;fillColor=#1ba1e2;strokeColor=#006EAF;fontColor=#ffffff;" vertex="1" parent="1">
          <mxGeometry x="500.00000000000006" y="270" width="120" height="60" as="geometry" />
        </mxCell>
        <mxCell id="NnSra6pWY707LlM8zNGm-35" style="edgeStyle=orthogonalEdgeStyle;rounded=0;orthogonalLoop=1;jettySize=auto;html=1;entryX=0;entryY=0.5;entryDx=0;entryDy=0;" edge="1" parent="1" source="NnSra6pWY707LlM8zNGm-40" target="NnSra6pWY707LlM8zNGm-45">
          <mxGeometry relative="1" as="geometry">
            <Array as="points">
              <mxPoint x="410.06000000000006" y="420" />
              <mxPoint x="410.06000000000006" y="570" />
            </Array>
          </mxGeometry>
        </mxCell>
        <mxCell id="NnSra6pWY707LlM8zNGm-36" style="edgeStyle=orthogonalEdgeStyle;rounded=0;orthogonalLoop=1;jettySize=auto;html=1;entryX=0;entryY=0.5;entryDx=0;entryDy=0;" edge="1" parent="1" source="NnSra6pWY707LlM8zNGm-40" target="NnSra6pWY707LlM8zNGm-46">
          <mxGeometry relative="1" as="geometry">
            <Array as="points">
              <mxPoint x="410.06000000000006" y="420" />
              <mxPoint x="410.06000000000006" y="650" />
            </Array>
          </mxGeometry>
        </mxCell>
        <mxCell id="NnSra6pWY707LlM8zNGm-37" style="edgeStyle=orthogonalEdgeStyle;rounded=0;orthogonalLoop=1;jettySize=auto;html=1;entryX=0;entryY=0.5;entryDx=0;entryDy=0;" edge="1" parent="1" source="NnSra6pWY707LlM8zNGm-40" target="NnSra6pWY707LlM8zNGm-47">
          <mxGeometry relative="1" as="geometry">
            <Array as="points">
              <mxPoint x="410.06000000000006" y="420" />
              <mxPoint x="410.06000000000006" y="730" />
            </Array>
          </mxGeometry>
        </mxCell>
        <mxCell id="NnSra6pWY707LlM8zNGm-38" style="edgeStyle=orthogonalEdgeStyle;rounded=0;orthogonalLoop=1;jettySize=auto;html=1;entryX=0;entryY=0.5;entryDx=0;entryDy=0;" edge="1" parent="1" source="NnSra6pWY707LlM8zNGm-40" target="NnSra6pWY707LlM8zNGm-48">
          <mxGeometry relative="1" as="geometry">
            <Array as="points">
              <mxPoint x="410.06000000000006" y="420" />
              <mxPoint x="410.06000000000006" y="810" />
            </Array>
          </mxGeometry>
        </mxCell>
        <mxCell id="NnSra6pWY707LlM8zNGm-39" style="edgeStyle=orthogonalEdgeStyle;rounded=0;orthogonalLoop=1;jettySize=auto;html=1;entryX=0;entryY=0.5;entryDx=0;entryDy=0;" edge="1" parent="1" source="NnSra6pWY707LlM8zNGm-40" target="NnSra6pWY707LlM8zNGm-49">
          <mxGeometry relative="1" as="geometry">
            <Array as="points">
              <mxPoint x="410.06000000000006" y="420" />
              <mxPoint x="410.06000000000006" y="890" />
            </Array>
          </mxGeometry>
        </mxCell>
        <mxCell id="9YM2bePDSAIkOTvoYm0--3" style="edgeStyle=orthogonalEdgeStyle;rounded=0;orthogonalLoop=1;jettySize=auto;html=1;entryX=0;entryY=0.5;entryDx=0;entryDy=0;" edge="1" parent="1">
          <mxGeometry relative="1" as="geometry">
            <mxPoint x="430.06000000000006" y="420" as="sourcePoint" />
            <mxPoint x="430.06000000000006" y="970" as="targetPoint" />
            <Array as="points">
              <mxPoint x="410" y="420" />
              <mxPoint x="410" y="970" />
            </Array>
          </mxGeometry>
        </mxCell>
        <mxCell id="NnSra6pWY707LlM8zNGm-40" value="Parte 3.1&lt;div&gt;(Desarrollo)&lt;/div&gt;" style="rounded=0;whiteSpace=wrap;html=1;fillColor=#1ba1e2;strokeColor=#006EAF;fontColor=#ffffff;" vertex="1" parent="1">
          <mxGeometry x="431.06000000000006" y="390" width="120" height="60" as="geometry" />
        </mxCell>
        <mxCell id="4qgYil5iZHDEp8zIYjFl-16" style="edgeStyle=orthogonalEdgeStyle;rounded=0;orthogonalLoop=1;jettySize=auto;html=1;entryX=0.988;entryY=0.596;entryDx=0;entryDy=0;entryPerimeter=0;" edge="1" parent="1" source="NnSra6pWY707LlM8zNGm-43" target="NnSra6pWY707LlM8zNGm-51">
          <mxGeometry relative="1" as="geometry">
            <mxPoint x="720" y="575" as="targetPoint" />
            <Array as="points">
              <mxPoint x="720" y="425" />
              <mxPoint x="720" y="575" />
              <mxPoint x="700" y="575" />
            </Array>
          </mxGeometry>
        </mxCell>
        <mxCell id="NnSra6pWY707LlM8zNGm-43" value="Parte&amp;nbsp; 3.2&lt;div&gt;(Pruebas)&lt;/div&gt;" style="rounded=0;whiteSpace=wrap;html=1;fillColor=#1ba1e2;strokeColor=#006EAF;fontColor=#ffffff;" vertex="1" parent="1">
          <mxGeometry x="570" y="390" width="120" height="60" as="geometry" />
        </mxCell>
        <mxCell id="NnSra6pWY707LlM8zNGm-44" value="Paquete de trabajo 3.1.1" style="rounded=0;whiteSpace=wrap;html=1;fillColor=#1ba1e2;strokeColor=#006EAF;fontColor=#ffffff;" vertex="1" parent="1">
          <mxGeometry x="431.06000000000006" y="465" width="120" height="60" as="geometry" />
        </mxCell>
        <mxCell id="NnSra6pWY707LlM8zNGm-45" value="Paquete de trabajo 3.1.2" style="rounded=0;whiteSpace=wrap;html=1;fillColor=#1ba1e2;strokeColor=#006EAF;fontColor=#ffffff;" vertex="1" parent="1">
          <mxGeometry x="431.06000000000006" y="540" width="120" height="60" as="geometry" />
        </mxCell>
        <mxCell id="NnSra6pWY707LlM8zNGm-46" value="Paquete de trabajo 3.1.3" style="rounded=0;whiteSpace=wrap;html=1;fillColor=#1ba1e2;strokeColor=#006EAF;fontColor=#ffffff;" vertex="1" parent="1">
          <mxGeometry x="431.06000000000006" y="620" width="120" height="60" as="geometry" />
        </mxCell>
        <mxCell id="NnSra6pWY707LlM8zNGm-47" value="Paquete de trabajo 3.1.4" style="rounded=0;whiteSpace=wrap;html=1;fillColor=#1ba1e2;strokeColor=#006EAF;fontColor=#ffffff;" vertex="1" parent="1">
          <mxGeometry x="431.06000000000006" y="700" width="120" height="60" as="geometry" />
        </mxCell>
        <mxCell id="NnSra6pWY707LlM8zNGm-48" value="Paquete de trabajo 3.1.5" style="rounded=0;whiteSpace=wrap;html=1;fillColor=#1ba1e2;strokeColor=#006EAF;fontColor=#ffffff;" vertex="1" parent="1">
          <mxGeometry x="431.06000000000006" y="780" width="120" height="60" as="geometry" />
        </mxCell>
        <mxCell id="NnSra6pWY707LlM8zNGm-49" value="Paquete de trabajo 3.1.6" style="rounded=0;whiteSpace=wrap;html=1;fillColor=#1ba1e2;strokeColor=#006EAF;fontColor=#ffffff;" vertex="1" parent="1">
          <mxGeometry x="431.06000000000006" y="860" width="120" height="60" as="geometry" />
        </mxCell>
        <mxCell id="NnSra6pWY707LlM8zNGm-50" value="Paquete de trabajo 3.2.1" style="rounded=0;whiteSpace=wrap;html=1;fillColor=#1ba1e2;strokeColor=#006EAF;fontColor=#ffffff;" vertex="1" parent="1">
          <mxGeometry x="570" y="465" width="120" height="60" as="geometry" />
        </mxCell>
        <mxCell id="NnSra6pWY707LlM8zNGm-51" value="Paquete de trabajo 3.2.2" style="rounded=0;whiteSpace=wrap;html=1;fillColor=#1ba1e2;strokeColor=#006EAF;fontColor=#ffffff;" vertex="1" parent="1">
          <mxGeometry x="570" y="540" width="120" height="60" as="geometry" />
        </mxCell>
        <mxCell id="NnSra6pWY707LlM8zNGm-52" style="edgeStyle=orthogonalEdgeStyle;rounded=0;orthogonalLoop=1;jettySize=auto;html=1;entryX=0.005;entryY=0.616;entryDx=0;entryDy=0;entryPerimeter=0;" edge="1" parent="1" source="NnSra6pWY707LlM8zNGm-40" target="NnSra6pWY707LlM8zNGm-44">
          <mxGeometry relative="1" as="geometry">
            <Array as="points">
              <mxPoint x="410.06000000000006" y="420" />
              <mxPoint x="410.06000000000006" y="502" />
            </Array>
          </mxGeometry>
        </mxCell>
        <mxCell id="4qgYil5iZHDEp8zIYjFl-5" style="edgeStyle=orthogonalEdgeStyle;rounded=0;orthogonalLoop=1;jettySize=auto;html=1;entryX=0.5;entryY=0;entryDx=0;entryDy=0;" edge="1" parent="1" target="NnSra6pWY707LlM8zNGm-27">
          <mxGeometry relative="1" as="geometry">
            <Array as="points">
              <mxPoint x="780" y="260" />
              <mxPoint x="780" y="260" />
            </Array>
            <mxPoint x="780" y="240" as="sourcePoint" />
            <mxPoint x="830" y="330" as="targetPoint" />
          </mxGeometry>
        </mxCell>
        <mxCell id="4qgYil5iZHDEp8zIYjFl-6" style="edgeStyle=orthogonalEdgeStyle;rounded=0;orthogonalLoop=1;jettySize=auto;html=1;entryX=0.5;entryY=0;entryDx=0;entryDy=0;" edge="1" parent="1" target="NnSra6pWY707LlM8zNGm-34">
          <mxGeometry relative="1" as="geometry">
            <Array as="points">
              <mxPoint x="560" y="240" />
            </Array>
            <mxPoint x="540" y="240" as="sourcePoint" />
            <mxPoint x="540" y="330" as="targetPoint" />
          </mxGeometry>
        </mxCell>
        <mxCell id="4qgYil5iZHDEp8zIYjFl-14" style="edgeStyle=orthogonalEdgeStyle;rounded=0;orthogonalLoop=1;jettySize=auto;html=1;entryX=0.5;entryY=0;entryDx=0;entryDy=0;exitX=0.5;exitY=1;exitDx=0;exitDy=0;" edge="1" parent="1" source="NnSra6pWY707LlM8zNGm-34" target="NnSra6pWY707LlM8zNGm-43">
          <mxGeometry relative="1" as="geometry">
            <mxPoint x="619" y="420" as="sourcePoint" />
            <mxPoint x="570" y="500" as="targetPoint" />
            <Array as="points">
              <mxPoint x="560" y="360" />
              <mxPoint x="630" y="360" />
            </Array>
          </mxGeometry>
        </mxCell>
        <mxCell id="4qgYil5iZHDEp8zIYjFl-19" style="edgeStyle=orthogonalEdgeStyle;rounded=0;orthogonalLoop=1;jettySize=auto;html=1;" edge="1" parent="1">
          <mxGeometry relative="1" as="geometry">
            <mxPoint x="720" y="495" as="sourcePoint" />
            <mxPoint x="690" y="500" as="targetPoint" />
            <Array as="points">
              <mxPoint x="720" y="500" />
              <mxPoint x="690" y="500" />
            </Array>
          </mxGeometry>
        </mxCell>
        <mxCell id="4qgYil5iZHDEp8zIYjFl-22" style="edgeStyle=orthogonalEdgeStyle;rounded=0;orthogonalLoop=1;jettySize=auto;html=1;" edge="1" parent="1">
          <mxGeometry relative="1" as="geometry">
            <Array as="points">
              <mxPoint x="929.41" y="240" />
            </Array>
            <mxPoint x="929.41" y="240" as="sourcePoint" />
            <mxPoint x="929.41" y="270" as="targetPoint" />
          </mxGeometry>
        </mxCell>
        <mxCell id="mTrbyqlqFLphYw8SlFU_-1" value="&lt;b&gt;EDT orientada a procesos&lt;/b&gt;" style="text;html=1;align=center;verticalAlign=middle;whiteSpace=wrap;rounded=0;" vertex="1" parent="1">
          <mxGeometry x="350" y="165" width="190" height="30" as="geometry" />
        </mxCell>
        <mxCell id="9YM2bePDSAIkOTvoYm0--1" value="Paquete de trabajo 3.1.7" style="rounded=0;whiteSpace=wrap;html=1;fillColor=#1ba1e2;strokeColor=#006EAF;fontColor=#ffffff;" vertex="1" parent="1">
          <mxGeometry x="431.06000000000006" y="940" width="120" height="60" as="geometry" />
        </mxCell>
      </root>
    </mxGraphModel>
  </diagram>
</mxfile>
